<svg xmlns="http://www.w3.org/2000/svg" viewBox="0 0 1024 1024"><title>Shellbell menu bar template</title><g transform="translate(87 181.44444444444446) scale(2.361111111111111)"><path d="M31 4Q36 -1 41 4L166 129Q177 140 166 151L41 276Q36 281 31 276L3 248Q-2 243 3 238L101 140L3 42Q-2 37 3 32Z" fill="#000000"/>
<path d="M190 220H344Q360 220 360 236V256Q360 272 344 272H190Q174 272 174 256V236Q174 220 190 220Z" fill="#000000"/>
<path d="M243 36Q261 35 262 54L267 119Q268 138 249 139Q230 140 229 121L224 56Q223 37 243 36Z" fill="#000000"/>
<path d="M340 75Q357 85 347 102L314 159Q304 176 287 166Q270 156 280 139L313 82Q323 65 340 75Z" fill="#000000"/></g></svg>
